HIERARCHY
ROOT Hips
{
	OFFSET 0.00000 0.00000 0.00000
	CHANNELS 6 Xposition Yposition Zposition Zrotation Yrotation Xrotation 
	JOINT LHipJoint
	{
		OFFSET 0 0 0
		CHANNELS 3 Zrotation Yrotation Xrotation
		JOINT LeftHip
		{
			OFFSET 1.26600 -1.82114 0.91038
			CHANNELS 3 Zrotation Yrotation Xrotation
			JOINT LeftKnee
			{
				OFFSET 2.50076 -6.87080 0.00000
				CHANNELS 3 Zrotation Yrotation Xrotation
				JOINT LeftAnkle
				{
					OFFSET 2.57364 -7.07102 0.00000
					CHANNELS 3 Zrotation Yrotation Xrotation
					JOINT LeftToe
					{
						OFFSET 0.13572 -0.37290 1.97004
						CHANNELS 3 Zrotation Yrotation Xrotation
						End Site
						{
							OFFSET 0.00000 -0.00000 1.01383
						}
					}
				}
			}
		}
	}
	JOINT RHipJoint
	{
		OFFSET 0 0 0
		CHANNELS 3 Zrotation Yrotation Xrotation
		JOINT RightHip
		{
			OFFSET -1.20803 -1.82114 0.91038
			CHANNELS 3 Zrotation Yrotation Xrotation
			JOINT RightKnee
			{
				OFFSET -2.54916 -7.00377 0.00000
				CHANNELS 3 Zrotation Yrotation Xrotation
				JOINT RightAnkle
				{
					OFFSET -2.56374 -7.04382 0.00000
					CHANNELS 3 Zrotation Yrotation Xrotation
					JOINT RightToe
					{
						OFFSET -0.23520 -0.64621 2.09921
						CHANNELS 3 Zrotation Yrotation Xrotation
						End Site
						{
							OFFSET -0.00000 -0.00000 1.10065
						}
					}
				}
			}
		}
	}
	JOINT lowerback
	{
		OFFSET 0 0 0
		CHANNELS 3 Zrotation Yrotation Xrotation
		JOINT Chest
		{
			OFFSET 0.05492 2.10797 -0.12074
			CHANNELS 3 Zrotation Yrotation Xrotation
			JOINT Chest2
			{
				OFFSET 0.04577 2.11592 -0.04483
				CHANNELS 3 Zrotation Yrotation Xrotation
				JOINT lowerneck
				{
					OFFSET 0 0 0
					CHANNELS 3 Zrotation Yrotation Xrotation
					JOINT Neck
					{
						OFFSET -0.10759 1.80167 0.15770
						CHANNELS 3 Zrotation Yrotation Xrotation
						JOINT Head
						{
							OFFSET 0.09237 1.77509 -0.40848
							CHANNELS 3 Zrotation Yrotation Xrotation
							End Site
							{
								OFFSET 0.03805 1.84093 -0.15754
							}
						}
					}
				}
				JOINT LeftCollar
				{
					OFFSET 0 0 0
					CHANNELS 3 Zrotation Yrotation Xrotation
					JOINT LeftShoulder
					{
						OFFSET 3.42372 1.09575 -0.28209
CHANNELS 3 Zrotation Xrotation Yrotation
						JOINT LeftElbow
						{
OFFSET 0 -4.956810 0.000000
CHANNELS 3 Zrotation Xrotation Yrotation
							JOINT LeftWrist
							{
OFFSET 0 -3.409150 0.000000
CHANNELS 3 Zrotation Xrotation Yrotation
								JOINT lhand
								{
									OFFSET 0 0 0
CHANNELS 3 Zrotation Xrotation Yrotation
									JOINT LFingers
									{
OFFSET 0 -0.616400 0.000000
CHANNELS 3 Zrotation Xrotation Yrotation
										End Site
										{
OFFSET 0 -0.496960 0.000000
										}
									}
								}
								JOINT LThumb
								{
OFFSET 0 0.000000 0.000000
CHANNELS 3 Zrotation Xrotation Yrotation
									End Site
									{
OFFSET 0 -0.504550 0.504550
									}
								}
							}
						}
					}
				}
				JOINT RightCollar
				{
					OFFSET 0 0 0
					CHANNELS 3 Zrotation Yrotation Xrotation
					JOINT RightShoulder
					{
						OFFSET -3.24731 1.15872 -0.32221
CHANNELS 3 Zrotation Xrotation Yrotation
						JOINT RightElbow
						{
OFFSET 0 -5.352000 0.000000
CHANNELS 3 Zrotation Xrotation Yrotation
							JOINT RightWrist
							{
OFFSET 0 -3.437210 -0.000000
CHANNELS 3 Zrotation Xrotation Yrotation
								JOINT rhand
								{
									OFFSET 0 0 0
CHANNELS 3 Zrotation Xrotation Yrotation
									JOINT RFingers
									{
OFFSET 0 -0.720090 0.000000
CHANNELS 3 Zrotation Xrotation Yrotation
										End Site
										{
OFFSET 0 -0.580560 0.000000
										}
									}
								}
								JOINT RThumb
								{
OFFSET 0 0.000000 0.000000
CHANNELS 3 Zrotation Xrotation Yrotation
									End Site
									{
OFFSET 0 -0.589420 0.589420
									}
								}
							}
						}
					}
				}
			}
		}
	}
}
MOTION
Frames: 5
Frame Time: 0.008333333333333333
20.581494 17.517323 -20.865692 -174.242601 -27.082706 181.855306 0.000000 0.000000 0.000000 -13.027920 1.678570 -20.234091 4.004755 12.166706 36.324340 1.476459 -1.420321 -22.563917 0.181532 2.665679 7.353796 0.000000 0.000000 0.000000 28.978390 -6.571477 -13.458327 -2.277200 -9.421101 27.121742 -0.968265 -3.976767 -20.431397 -0.006599 -0.522994 1.437230 5.163259 1.501981 4.738242 3.532895 1.960357 2.725360 0.656546 0.901619 0.212655 -6.873299 4.695000 -15.882142 -1.083272 7.169318 37.068158 1.728335 0.969050 15.524839 0.000000 0.000000 0.000000 0.804584 6.769032 -19.061648 14.984811 -24.124097 3.220242 13.821869 6.439294 -20.870692 0.000000 0.000000 0.000000 -7.125000 0.000000 0.000000 -14.799628 50.822909 2.164182 0.000000 0.000000 0.000000 -3.731886 -2.639227 23.827116 -15.388613 -24.684599 -3.386583 -20.428295 -14.341759 -9.841066 0.000000 0.000000 0.000000 7.125000 0.000000 0.000000 4.668771 19.511049 2.851610
20.607237 17.479574 -20.941832 -174.242476 -32.662736 181.002412 0.000000 0.000000 0.000000 -13.922489 6.537429 -21.333134 3.829512 11.929901 35.484637 0.935142 -0.055266 -18.263614 0.002606 0.321695 0.883801 0.000000 0.000000 0.000000 29.192418 -7.723206 -13.560224 -2.473508 -9.789607 28.298034 -1.036488 -6.818644 -22.845056 -0.035729 -1.214439 3.339022 5.305554 1.792907 5.159724 3.634971 2.422033 2.446571 0.644271 1.127456 -0.296753 -5.767508 4.238769 -13.981293 -2.133684 6.352318 36.485843 0.925042 0.722935 14.930994 0.000000 0.000000 0.000000 1.086276 7.653696 -21.183403 16.959673 -26.804607 4.069180 14.074628 3.366124 -19.818924 0.000000 0.000000 0.000000 -7.125000 0.000000 0.000000 -14.139028 49.828220 1.714000 0.000000 0.000000 0.000000 -4.246691 -1.807700 22.807232 -15.652490 -25.047105 -3.497583 -20.756679 -14.832645 -10.724932 0.000000 0.000000 0.000000 7.125000 0.000000 0.000000 4.452948 18.549204 2.813468
20.562830 17.459992 -21.008267 -174.653564 -39.095349 180.445619 0.000000 0.000000 0.000000 -14.814413 6.267316 -20.582177 3.435720 11.369068 33.535010 0.776233 -3.638334 -15.814642 0.078458 1.806159 4.970349 0.000000 0.000000 0.000000 28.816144 -9.440779 -13.829133 -2.652735 -10.110531 29.335280 -0.946031 -10.048761 -24.592182 -0.020267 -0.918440 2.524535 5.083951 1.614095 4.767277 3.583843 2.182870 2.299264 0.734641 1.019983 -0.244938 -5.909069 4.052513 -14.524760 -1.998828 6.249312 37.225009 1.009612 0.659375 15.411640 0.000000 0.000000 0.000000 1.276130 8.328003 -22.772425 18.781623 -29.146373 4.924027 14.160852 0.924459 -18.460518 0.000000 0.000000 0.000000 -7.125000 0.000000 0.000000 -13.557594 48.498899 1.190325 0.000000 0.000000 0.000000 -5.483764 -1.132644 22.940872 -15.978173 -25.491028 -3.636546 -20.535056 -15.320807 -10.219620 0.000000 0.000000 0.000000 7.125000 0.000000 0.000000 4.599447 19.101893 2.850188
20.489540 17.461891 -21.029966 -177.218661 -45.635930 180.972743 0.000000 0.000000 0.000000 -17.192230 2.436488 -16.739339 2.882038 10.501418 30.616483 0.597155 -6.630009 -13.845034 0.348208 3.777606 10.453548 0.000000 0.000000 0.000000 26.243667 -10.959492 -14.791601 -3.321754 -11.198230 32.951799 -0.770675 -12.495166 -25.407254 -0.000313 -0.083803 0.230266 3.428321 1.301896 5.003980 3.118178 1.755208 2.375549 1.191542 0.818723 -0.351375 -6.452993 3.611891 -14.686274 -0.961296 5.549277 37.355112 1.447017 0.484177 15.455767 0.000000 0.000000 0.000000 1.185062 7.476956 -23.677817 19.147856 -29.601916 5.103666 15.121861 0.750932 -19.324165 0.000000 0.000000 0.000000 -7.125000 0.000000 0.000000 -12.960884 49.498504 1.460153 0.000000 0.000000 0.000000 -6.651842 -1.113579 21.129565 -15.678741 -25.083051 -3.508655 -20.729319 -14.481618 -10.071980 0.000000 0.000000 0.000000 7.125000 0.000000 0.000000 4.458743 19.243944 2.748331
20.387563 17.444560 -21.038118 -178.416219 -51.382984 180.766938 0.000000 0.000000 0.000000 -18.444310 -0.220379 -14.029867 2.604847 10.026052 29.061194 0.458013 -9.391041 -12.841419 0.235509 3.117108 8.605475 0.000000 0.000000 0.000000 24.383875 -11.554887 -14.631514 -3.943594 -12.084559 36.032285 -0.939825 -12.644686 -26.867064 -0.016061 -0.818059 2.248357 2.913681 1.178445 4.683842 3.025544 1.551918 2.622786 1.403519 0.723300 0.067861 -6.920072 3.329438 -14.851657 -0.331453 5.152301 37.854926 1.747387 0.342748 15.714297 0.000000 0.000000 0.000000 0.394998 5.706472 -22.188586 18.407768 -28.676137 4.743290 12.786128 1.992517 -17.696142 0.000000 0.000000 0.000000 -7.125000 0.000000 0.000000 -14.568204 47.552583 0.935879 0.000000 0.000000 0.000000 -7.803256 -1.512584 18.138114 -14.757711 -23.807323 -3.127572 -21.064179 -13.294592 -10.281933 0.000000 0.000000 0.000000 7.125000 0.000000 0.000000 4.225391 18.995414 2.626994
